<?xml version="1.0" encoding="UTF-8"?>
<!DOCTYPE svg PUBLIC "-//W3C//DTD SVG 1.1//EN" "http://www.w3.org/Graphics/SVG/1.1/DTD/svg11.dtd">
<!-- Creator: CorelDRAW X6 -->
<svg xmlns="http://www.w3.org/2000/svg" xml:space="preserve" width="1012mm" height="300mm" version="1.1" style="shape-rendering:geometricPrecision; text-rendering:geometricPrecision; image-rendering:optimizeQuality; fill-rule:evenodd; clip-rule:evenodd"
viewBox="0 0 159710 47345"
 xmlns:xlink="http://www.w3.org/1999/xlink">
 <defs>
  <style type="text/css">
   <![CDATA[
    .fil2 {fill:none}
    .fil1 {fill:#1D1819;fill-rule:nonzero}
    .fil0 {fill:#0059DC;fill-rule:nonzero}
   ]]>
  </style>
 </defs>
 <g id="图层_x0020_1">
  <metadata id="CorelCorpID_0Corel-Layer"/>
  <g id="_1642521360">
   <path class="fil0" d="M54510 21875l371 0 38 954 23 0c207,-323 454,-578 742,-764 288,-187 603,-280 946,-280 298,0 540,53 726,159l-114 394c-136,-56 -248,-93 -337,-114 -88,-20 -206,-30 -352,-30 -303,0 -588,92 -855,276 -267,184 -517,483 -749,897l0 2369 -439 0 0 -3860z"/>
   <path class="fil0" d="M60157 25833c-358,0 -684,-82 -976,-246 -293,-164 -526,-399 -700,-704 -174,-305 -261,-662 -261,-1071 0,-399 86,-753 257,-1063 172,-310 399,-549 681,-715 283,-166 583,-250 901,-250 505,0 904,160 1199,481 295,320 443,758 443,1313 0,141 -5,245 -15,310l-3004 0c0,303 66,573 197,810 131,237 312,423 541,556 230,134 491,201 783,201 222,0 428,-33 617,-98 189,-66 377,-164 564,-295l166 318c-207,141 -420,252 -639,333 -219,81 -470,121 -753,121zm1128 -2285c0,-449 -110,-796 -329,-1041 -219,-245 -518,-367 -897,-367 -222,0 -434,58 -636,174 -202,116 -370,280 -503,492 -134,212 -216,459 -246,742l2611 0z"/>
   <path class="fil1" d="M62762 20218l439 0 0 1408 -23 991c237,-272 469,-479 696,-621 227,-141 474,-212 742,-212 439,0 764,127 976,382 212,255 318,642 318,1162l0 2407 -439 0 0 -2346c0,-414 -76,-720 -227,-919 -151,-199 -396,-299 -734,-299 -232,0 -443,63 -632,189 -189,126 -415,338 -677,636l0 2740 -439 0 0 -5517z"/>
   <path class="fil1" d="M67296 27377c-166,0 -318,-25 -454,-76l106 -356c116,35 232,53 348,53 267,0 488,-78 662,-235 174,-156 324,-396 450,-719l98 -257 -1748 -3913 446 0 1007 2354 477 1097 30 0 250 -651 166 -446 893 -2354 424 0 -1657 4230c-343,848 -843,1271 -1498,1271z"/>
   <path class="fil1" d="M71437 21875l363 0 45 537 23 0c187,-187 397,-338 632,-454 235,-116 465,-174 692,-174 499,0 879,174 1139,522 260,348 390,830 390,1445 0,424 -77,793 -231,1109 -154,315 -359,556 -617,723 -257,166 -537,250 -840,250 -172,0 -365,-49 -579,-148 -214,-98 -410,-228 -587,-390l8 772 0 1218 -439 0 0 -5411zm1544 3580c247,0 468,-72 662,-216 194,-144 347,-344 458,-602 111,-257 166,-552 166,-885 0,-489 -95,-877 -284,-1162 -189,-285 -483,-428 -882,-428 -182,0 -378,57 -590,170 -212,114 -424,281 -636,503l0 2074c182,182 373,318 575,409 202,91 378,136 530,136z"/>
   <path class="fil1" d="M77508 25833c-358,0 -684,-82 -976,-246 -293,-164 -526,-399 -700,-704 -174,-305 -261,-662 -261,-1071 0,-399 86,-753 257,-1063 172,-310 399,-549 681,-715 283,-166 583,-250 901,-250 505,0 904,160 1199,481 295,320 443,758 443,1313 0,141 -5,245 -15,310l-3004 0c0,303 66,573 197,810 131,237 312,423 541,556 230,134 491,201 783,201 222,0 428,-33 617,-98 189,-66 377,-164 564,-295l166 318c-207,141 -420,252 -639,333 -219,81 -470,121 -753,121zm1128 -2285c0,-449 -110,-796 -329,-1041 -219,-245 -518,-367 -897,-367 -222,0 -434,58 -636,174 -202,116 -370,280 -503,492 -134,212 -216,459 -246,742l2611 0z"/>
   <polygon class="fil1" points="80037,23063 83201,23063 83201,23411 80037,23411 "/>
   <path class="fil0" d="M84451 21875l363 0 45 537 23 0c187,-187 397,-338 632,-454 235,-116 465,-174 692,-174 499,0 879,174 1139,522 260,348 390,830 390,1445 0,424 -77,793 -231,1109 -154,315 -359,556 -617,723 -257,166 -537,250 -840,250 -172,0 -365,-49 -579,-148 -214,-98 -410,-228 -587,-390l8 772 0 1218 -439 0 0 -5411zm1544 3580c247,0 468,-72 662,-216 194,-144 347,-344 458,-602 111,-257 166,-552 166,-885 0,-489 -95,-877 -284,-1162 -189,-285 -483,-428 -882,-428 -182,0 -378,57 -590,170 -212,114 -424,281 -636,503l0 2074c182,182 373,318 575,409 202,91 378,136 530,136z"/>
   <path class="fil0" d="M89213 21875l371 0 38 954 23 0c207,-323 454,-578 742,-764 288,-187 603,-280 946,-280 298,0 540,53 726,159l-114 394c-136,-56 -248,-93 -337,-114 -88,-20 -206,-30 -352,-30 -303,0 -588,92 -855,276 -267,184 -517,483 -749,897l0 2369 -439 0 0 -3860z"/>
   <path class="fil0" d="M93233 25364l1483 0 0 -3118 -1483 0 0 -371 1915 0 0 3489 1491 0 0 371 -3405 0 0 -371zm1612 -4503c-121,0 -226,-43 -314,-129 -88,-86 -132,-189 -132,-310 0,-131 43,-240 129,-325 86,-86 192,-129 318,-129 126,0 232,43 318,129 86,86 129,194 129,325 0,121 -44,225 -132,310 -88,86 -193,129 -314,129z"/>
   <path class="fil1" d="M99084 25833c-343,0 -666,-56 -969,-166 -303,-111 -575,-257 -817,-439l227 -303c217,177 449,312 696,405 247,93 542,140 885,140 343,0 609,-68 798,-204 189,-136 284,-310 284,-522 0,-177 -91,-329 -272,-458 -182,-129 -512,-254 -991,-375 -424,-111 -767,-257 -1029,-439 -262,-182 -394,-394 -394,-636 0,-303 127,-554 382,-753 255,-199 619,-299 1094,-299 242,0 493,44 753,132 260,88 483,201 670,337l-235 310c-358,-283 -757,-424 -1196,-424 -358,0 -615,63 -772,189 -156,126 -235,288 -235,484 0,166 100,309 299,428 199,119 493,228 882,329 545,146 931,305 1158,477 227,172 341,394 341,666 0,207 -62,395 -185,564 -124,169 -303,304 -537,405 -235,101 -513,151 -836,151z"/>
   <path class="fil1" d="M101560 21875l356 0 38 522 23 0c106,-202 223,-354 352,-458 129,-103 289,-155 481,-155 383,0 621,227 711,681 136,-232 270,-404 401,-515 131,-111 293,-166 484,-166 252,0 448,98 586,295 139,197 208,487 208,870l0 2785 -431 0 0 -2740c0,-550 -159,-825 -477,-825 -151,0 -281,54 -390,163 -108,108 -221,284 -337,526l0 2876 -371 0 0 -2740c0,-550 -164,-825 -492,-825 -141,0 -266,54 -375,163 -108,108 -221,284 -337,526l0 2876 -431 0 0 -3860z"/>
  </g>
  <polygon class="fil2" points="0,0 159710,0 159710,47345 0,47345 "/>
 </g>
</svg>
